<svg viewBox="0 0 510.95 202.64" xmlns="http://www.w3.org/2000/svg"><g fill="#193074"><path d="m335.16 158.73c-2.75 2.68-31.35 17.59-50.65 12.7-21.42-5.42-34.23-21.32-44.11-50.09-13.93-40.57-20.9-106.86-20.9-106.86l-17 73.76h20.18a1.28 1.28 0 0 1 1.26 1l.54 2.63a.94.94 0 0 1 -.92 1.13l-22.18.07-11.92 51.61a3.38 3.38 0 0 1 -3.28 2.61h-15.71a1.76 1.76 0 0 1 -1.7-2.18l35.9-144.42a.9.9 0 0 1 .88-.69h21.1a.85.85 0 0 1 .84.73c1.15 8.57 12.33 90.34 23.9 119.51 7.38 18.59 15.71 38.59 33.61 45.33 18.81 7.09 44.84-7.7 48.69-10.33 1.97-1.34 1.85 3.11 1.47 3.49z"/><path d="m324.25 104.92c-10 2.73-16.25-.59-16.25-.59 1.41-13.33-4-15.33-4-15.33s-8.18-3.24-9.84 5c-1.71 8.48 10.42 13.35 10.42 13.35-3.4 23.09-15.58 30.84-15.58 30.84s-3.22-1.18-5.46-7.95-.87-18.25-.87-18.25 1.94-13.74 2.43-17.18-1.65-4.22-1.65-4.22c-13.53-2.06-19.38 4.71-19.38 4.71 2.26 29.7 8.93 44.36 14.93 49.27s11 1.22 11 1.22c15.18-16.88 17.18-38.42 17.18-38.42 2.79 1 11.77 1.54 17.46-.85a4.53 4.53 0 0 1 4.16.19l.33-2s-.54-.97-4.88.21zm-19.42-1.72c-7.2-4.76-5.93-9.81-5.93-9.81.58-1.86 3-.64 3-.64 4.25 3.78 2.93 10.45 2.93 10.45z"/><path d="m385.89 118.74c-11.39 21.37-19.81 22.31-19.81 22.31s-3.47.91-3.81-4.9c-.38-6.6 2.05-22.45 3.07-27.67a30.93 30.93 0 0 0 0-10.45c-.84-4.59-9.47-6.57-10.59-6.16s-2.32 2.51-2.32 2.51c-13.93-11.8-24.7-2.3-24.7-2.3-11.6 12.12-14.57 33.73-9.84 46.15 3.37 8.83 13.84 8.57 13.84 8.57 11.88-1.26 14.95-13.06 14.95-13.06.18 6.37 2.22 9.61 2.22 9.61 1.4 3.76 7.15 3.55 7.15 3.55 18.51 1.88 32.06-25 32.06-25 .19-1.8-2.22-3.16-2.22-3.16zm-39.4 8.84c-2.32 7.73-5.93 11.12-10.18 10.62-2.69-.31-7-.82-7.41-7.92-.81-13.75 5.1-35.08 14.1-35.73a6.9 6.9 0 0 1 7.31 4.84c-4.01 10.97-3.82 28.19-3.82 28.19z"/><path d="m427.75 125.42s-15.43 26-22.18 12.72a109.14 109.14 0 0 1 -9.78-28.41c17.48-36.46 20.65-55.36 20.65-55.36s2.69-23.08-7.39-33.25-19.79-4.18-19.79-4.18c-35 27.8-7.15 105.76-7.15 105.76s5 18.24 22.72 23.44 25.11-18.35 25.11-18.35c-.73-3.64-2.19-2.37-2.19-2.37zm-32.08-97.58s3.67-4.12 9.71.73c4.8 3.84 6.42 18.47 4.95 26.83 0 0-1.89 17.33-16.49 47.79 0 0-13.84-46.39 1.83-75.35z"/><path d="m476.4 100.2a16.45 16.45 0 0 1 -7 6.89c-4.73 2.49-8.34 1.63-8.34 1.63-3.36-19.54-16.83-20.72-23.64-20.3-8.44.57-22.84 6-22.27 32.46s21.26 26.12 21.26 26.12c28-.74 24.94-35 24.94-35a29.42 29.42 0 0 0 5.64-.41c6.91-1.63 12.44-8.33 12.44-8.33.29-3.06-3.03-3.06-3.03-3.06zm-29-6.71c8.24 3.5 9.66 14.75 9.66 14.75-12.65-3.29-14.31-8.43-14.31-8.43s-4.15-10.04 4.62-6.32zm-3.89 47.12s-8.43 1.88-11.47-10.85c-4.38-18.44-1.32-31.51 4.46-33.87 0 0 2.18 14.17 21.23 16-.03-.01 2.53 24.76-14.25 28.72z"/><path d="m494.65 115.79c6.57-5.82 16.14-8.77 16.14-8.77.52-2-.62-2.25-.5-2.18a79.53 79.53 0 0 0 -18.21 8.65s-6.08-4.92-8.89-10.49c-4.45-8.75 3.53-10.78 3.53-10.78s6-1.59 7.75 2c.93 1.87-3.69 4.5-3.69 4.5-.78 3 2 2.78 2 2.78s10.4-1.73 9.86-8.14c-.26-3.1-5.47-4.42-9.57-4.93-7.15-.9-27.11 4-21.83 16.93 3.38 8.3 10.84 14.9 10.84 14.9s-9.21 7.41-11.17 12.31c-4 10.08 11.75 13.72 11.75 13.72s21.83 4.39 25.13-9.7c2.21-9.32-13.14-20.8-13.14-20.8zm-6.24 28.38s-6.78 1.66-10.61-4.3c-4.8-7.45 7.26-16.75 7.26-16.75s8.08 6.11 8.39 14.14c.2 5.19-5.04 6.91-5.04 6.91z"/><path d="m56.71 138v8.79a.49.49 0 0 1 -.49.49h-55.74a.49.49 0 0 1 -.48-.49v-121.79a.49.49 0 0 1 .48-.49h16.18a.48.48 0 0 1 .48.49v113.26a.48.48 0 0 0 .49.48h36.87a1.79 1.79 0 0 0 1.19-.44l.65-.55c.18-.19.37-.06.37.25z"/><path d="m63.84 88.07h11.46a.27.27 0 0 1 .27.27v37a22.06 22.06 0 0 0 .88 6.33 16.72 16.72 0 0 0 2.55 5.14 12.42 12.42 0 0 0 4 3.51 10.6 10.6 0 0 0 5.24 1.29 10.34 10.34 0 0 0 5.15-1.29 12.18 12.18 0 0 0 3.93-3.51 16.92 16.92 0 0 0 2.51-5.19 22.41 22.41 0 0 0 .88-6.33v-36.95a.27.27 0 0 1 .26-.27h7a.27.27 0 0 1 .26.27v37a28.12 28.12 0 0 1 -1.27 8.55 18.93 18.93 0 0 1 -4 7 19.25 19.25 0 0 1 -7 4.78 27 27 0 0 1 -10.3 1.77 23.92 23.92 0 0 1 -9.5-1.77 19.78 19.78 0 0 1 -6.9-4.8 20.36 20.36 0 0 1 -4.2-7.08 25.77 25.77 0 0 1 -1.42-8.62v-36.83a.27.27 0 0 1 .2-.27z"/><path d="m118.46 88.07h7.09a.38.38 0 0 1 .31.16l27 36a.4.4 0 0 0 .71-.24v-35.52a.39.39 0 0 1 .39-.4h7.59a.39.39 0 0 1 .33.61 4.43 4.43 0 0 0 -.82 2.47v55.79a.38.38 0 0 1 -.39.39h-4.56a.4.4 0 0 1 -.32-.16l-29.44-39.88a.39.39 0 0 0 -.71.23v39.4a.38.38 0 0 1 -.39.39h-6.82a.38.38 0 0 1 -.39-.39v-58.45a.39.39 0 0 1 .42-.4z"/><path d="m.56 189h4.86a12.93 12.93 0 0 1 3.45.44 8.19 8.19 0 0 1 2.71 1.28 6 6 0 0 1 1.76 2.06 6 6 0 0 1 .63 2.8 6.58 6.58 0 0 1 -.54 2.65 6.14 6.14 0 0 1 -1.55 2.17 7.4 7.4 0 0 1 -2.52 1.46 10 10 0 0 1 -3.41.53h-5.39zm3.29 12h1.75a4.8 4.8 0 0 0 1.82-.35 4.34 4.34 0 0 0 1.5-1.05 4.86 4.86 0 0 0 1-1.7 6.59 6.59 0 0 0 .37-2.31 5.92 5.92 0 0 0 -.35-2.09 5.2 5.2 0 0 0 -1-1.67 4.66 4.66 0 0 0 -1.49-1.1 4.51 4.51 0 0 0 -1.89-.4h-1.71z"/><path d="m41.57 189h3.28v13.39h-3.28z"/><path d="m81 195.82h5.56v5.18c-.42.23-.85.44-1.28.63a11.07 11.07 0 0 1 -1.37.5 11.6 11.6 0 0 1 -1.6.32 14.21 14.21 0 0 1 -1.94.12 10.21 10.21 0 0 1 -3.19-.48 7.68 7.68 0 0 1 -2.51-1.37 6.14 6.14 0 0 1 -1.67-2.15 6.4 6.4 0 0 1 -.59-2.75 7.17 7.17 0 0 1 .59-2.93 6.81 6.81 0 0 1 1.65-2.27 7.63 7.63 0 0 1 2.51-1.47 9.41 9.41 0 0 1 3.19-.53 7.09 7.09 0 0 1 2 .28 8.49 8.49 0 0 1 1.74.73 7.76 7.76 0 0 1 1.45 1 7.15 7.15 0 0 1 1 1.21l-1.35 1.24a11.23 11.23 0 0 0 -.89-1.12 6.32 6.32 0 0 0 -1-.89 4.49 4.49 0 0 0 -1.12-.6 3.82 3.82 0 0 0 -1.28-.22 5 5 0 0 0 -1.93.38 4.52 4.52 0 0 0 -1.55 1.08 5 5 0 0 0 -1 1.73 7.09 7.09 0 0 0 -.37 2.34 6.33 6.33 0 0 0 .4 2.3 4.86 4.86 0 0 0 1.08 1.68 4.59 4.59 0 0 0 1.59 1 5.5 5.5 0 0 0 2 .35 4.48 4.48 0 0 0 1.18-.16 3.4 3.4 0 0 0 1-.5v-3.45h-2.3z"/><path d="m114.47 189h3.28v13.39h-3.28z"/><path d="m157.09 189v1.15h-4.64v12.24h-3.28v-12.29h-4.64v-1.1z"/><path d="m188.89 188.67 6.29 13.67h-3.36l-1.68-3.65h-5.21l-1.75 3.65h-2.24l6.53-13.67zm-3.33 8.77h4l-2-4.32z"/><path d="m221.66 189h3.34v12h6.84v1.37h-10.18z"/><path d="m344 196v6.38h-3.29v-13.38h3.29v5.87h5.38v-5.87h3.26v13.39h-3.26v-6.39z"/><path d="m387.89 202.64a8.61 8.61 0 0 1 -3-.52 7.31 7.31 0 0 1 -2.42-1.47 6.81 6.81 0 0 1 -1.62-2.24 6.89 6.89 0 0 1 -.59-2.85 6.55 6.55 0 0 1 .59-2.79 6.48 6.48 0 0 1 1.62-2.18 7.18 7.18 0 0 1 2.42-1.41 8.84 8.84 0 0 1 3-.51 8.69 8.69 0 0 1 3 .51 7.31 7.31 0 0 1 2.43 1.42 6.71 6.71 0 0 1 1.63 2.17 6.48 6.48 0 0 1 .59 2.76 7.69 7.69 0 0 1 -.26 2 6.76 6.76 0 0 1 -.77 1.73 6.15 6.15 0 0 1 -1.18 1.41 7 7 0 0 1 -1.55 1.06 8.38 8.38 0 0 1 -1.84.67 9.29 9.29 0 0 1 -2.05.24zm0-1.13a3.31 3.31 0 0 0 1.73-.45 3.76 3.76 0 0 0 1.25-1.23 6.24 6.24 0 0 0 .77-1.89 10.39 10.39 0 0 0 .26-2.38 9.89 9.89 0 0 0 -.26-2.33 5.81 5.81 0 0 0 -.77-1.82 3.73 3.73 0 0 0 -1.25-1.19 3.79 3.79 0 0 0 -3.47 0 3.76 3.76 0 0 0 -1.26 1.19 5.8 5.8 0 0 0 -.76 1.82 9.91 9.91 0 0 0 -.25 2.33 10.41 10.41 0 0 0 .25 2.38 6.23 6.23 0 0 0 .76 1.89 3.79 3.79 0 0 0 1.26 1.23 3.32 3.32 0 0 0 1.74.45z"/><path d="m423.12 189h3.29v8.61a4.28 4.28 0 0 0 .24 1.45 3.75 3.75 0 0 0 .7 1.2 3.46 3.46 0 0 0 1.08.8 3.37 3.37 0 0 0 1.44.3 3.24 3.24 0 0 0 1.41-.3 3.46 3.46 0 0 0 1.08-.8 3.71 3.71 0 0 0 .64-1.26 4.05 4.05 0 0 0 .25-1.45v-8.55h2.07v8.61a5.54 5.54 0 0 1 -.35 2 4.14 4.14 0 0 1 -1.1 1.62 5.37 5.37 0 0 1 -1.93 1.1 9 9 0 0 1 -2.82.4 7.93 7.93 0 0 1 -2.6-.4 5.45 5.45 0 0 1 -1.9-1.11 4.62 4.62 0 0 1 -1.15-1.62 5.07 5.07 0 0 1 -.39-2z"/><path d="m468.11 202.54a7 7 0 0 1 -2.11-.28 5 5 0 0 1 -1.54-.78 3.66 3.66 0 0 1 -1-1.18 4.94 4.94 0 0 1 -.52-1.5h2.29a3.77 3.77 0 0 0 .34.94 2.52 2.52 0 0 0 .58.75 2.58 2.58 0 0 0 .83.51 3.15 3.15 0 0 0 1.11.18 3.75 3.75 0 0 0 .82-.09 2.43 2.43 0 0 0 .74-.29 1.55 1.55 0 0 0 .52-.53 1.39 1.39 0 0 0 .2-.79 1.9 1.9 0 0 0 -.3-1.06 3.43 3.43 0 0 0 -.82-.84 6.93 6.93 0 0 0 -1.14-.71l-1.31-.66q-.68-.33-1.32-.69a6.15 6.15 0 0 1 -1.14-.82 3.68 3.68 0 0 1 -.81-1 2.63 2.63 0 0 1 -.31-1.3 3.2 3.2 0 0 1 .35-1.48 3.4 3.4 0 0 1 1-1.17 4.9 4.9 0 0 1 1.62-.79 8.08 8.08 0 0 1 2.19-.28 5.75 5.75 0 0 1 1.82.28 4.68 4.68 0 0 1 1.45.77 4.38 4.38 0 0 1 1 1.14 5.31 5.31 0 0 1 .65 1.41h-2a8.38 8.38 0 0 0 -.41-.91 3.16 3.16 0 0 0 -.59-.76 2.54 2.54 0 0 0 -.84-.52 3.19 3.19 0 0 0 -1.17-.19 2.85 2.85 0 0 0 -1.08.17 1.9 1.9 0 0 0 -.71.43 1.49 1.49 0 0 0 -.39.58 2 2 0 0 0 -.11.63 1.6 1.6 0 0 0 .31 1 3.62 3.62 0 0 0 .84.81 9.21 9.21 0 0 0 1.18.72l1.35.69c.45.23.9.47 1.34.72a7.1 7.1 0 0 1 1.18.84 3.92 3.92 0 0 1 .84 1 2.49 2.49 0 0 1 .31 1.25 3.34 3.34 0 0 1 -1.33 2.74 4.75 4.75 0 0 1 -1.64.81 7.85 7.85 0 0 1 -2.27.25z"/><path d="m511 189v1.15h-6.72v4.41h5.59v1.15h-5.59v5.29h6.72v1.37h-10v-13.37z"/><circle cx="284.54" cy="196.24" r="3.3"/></g></svg>